<?xml version="1.0" encoding="UTF-8"?>
 <svg xmlns="http://www.w3.org/2000/svg" width="615" height="188" viewBox="0 0 615 188" role="img" aria-labelledby="title desc">
   <title id="title">Language distribution donut chart</title>
   <desc id="desc">Language mix across current public repositories: Kotlin 50.2%, HTML 28.6%, JavaScript 16.9%, CSS 3.0%, Python 1.2%, PowerShell 0.2%.</desc>
   <style>
     .label { fill: #24292f; font: 600 14px -apple-system, BlinkMacSystemFont, "Segoe UI", sans-serif; }
     .percent { fill: #57606a; font: 600 13px -apple-system, BlinkMacSystemFont, "Segoe UI", sans-serif; }
     .center-value { fill: #24292f; font: 700 28px -apple-system, BlinkMacSystemFont, "Segoe UI", sans-serif; text-anchor: middle; }
     .center-label { fill: #24292f; font: 600 13px -apple-system, BlinkMacSystemFont, "Segoe UI", sans-serif; text-anchor: middle; }
     .bar-track { fill: #d0d7de; opacity: 0.34; }
     .donut-track { fill: #d0d7de; opacity: 0.20; }
     .segment { stroke: none; }
     @media (prefers-color-scheme: dark) {
       .label, .center-value, .center-label { fill: #f0f6fc; }
       .percent { fill: #8b949e; }
       .bar-track { fill: #30363d; }
       .donut-track { fill: #30363d; }
     }
   </style>

   <g>
     <circle cx="26.0" cy="30.5" r="5" fill="#7F52FF"/>
    <text class="label" x="44.0" y="34.5">Kotlin</text>
    <text class="percent" x="183.0" y="34.5" text-anchor="end">50.2%</text>
    <rect class="bar-track" x="44.0" y="43.5" width="139.0" height="3" rx="1.5"/>
    <rect x="44.0" y="43.5" width="69.75" height="3" rx="1.5" fill="#7F52FF"/>
    <circle cx="26.0" cy="62.5" r="5" fill="#E34F26"/>
    <text class="label" x="44.0" y="66.5">HTML</text>
    <text class="percent" x="183.0" y="66.5" text-anchor="end">28.6%</text>
    <rect class="bar-track" x="44.0" y="75.5" width="139.0" height="3" rx="1.5"/>
    <rect x="44.0" y="75.5" width="39.77" height="3" rx="1.5" fill="#E34F26"/>
    <circle cx="26.0" cy="94.5" r="5" fill="#F7DF1E"/>
    <text class="label" x="44.0" y="98.5">JavaScript</text>
    <text class="percent" x="183.0" y="98.5" text-anchor="end">16.9%</text>
    <rect class="bar-track" x="44.0" y="107.5" width="139.0" height="3" rx="1.5"/>
    <rect x="44.0" y="107.5" width="23.47" height="3" rx="1.5" fill="#F7DF1E"/>
    <circle cx="26.0" cy="126.5" r="5" fill="#00B8D9"/>
    <text class="label" x="44.0" y="130.5">CSS</text>
    <text class="percent" x="183.0" y="130.5" text-anchor="end">3.0%</text>
    <rect class="bar-track" x="44.0" y="139.5" width="139.0" height="3" rx="1.5"/>
    <rect x="44.0" y="139.5" width="4.17" height="3" rx="1.5" fill="#00B8D9"/>
    <circle cx="26.0" cy="158.5" r="5" fill="#22C55E"/>
    <text class="label" x="44.0" y="162.5">Python</text>
    <text class="percent" x="183.0" y="162.5" text-anchor="end">1.2%</text>
    <rect class="bar-track" x="44.0" y="171.5" width="139.0" height="3" rx="1.5"/>
    <rect x="44.0" y="171.5" width="4.00" height="3" rx="1.5" fill="#22C55E"/>
    <circle cx="209.0" cy="30.5" r="5" fill="#EC4899"/>
    <text class="label" x="227.0" y="34.5">PowerShell</text>
    <text class="percent" x="366.0" y="34.5" text-anchor="end">0.2%</text>
    <rect class="bar-track" x="227.0" y="43.5" width="139.0" height="3" rx="1.5"/>
    <rect x="227.0" y="43.5" width="4.00" height="3" rx="1.5" fill="#EC4899"/>
   </g>

   <g>
     <path class="donut-track" d="M 508.00 11.00 A 83.00 83.00 0 1 1 508.00 177.00 A 83.00 83.00 0 1 1 508.00 11.00 L 508.00 33.00 A 61.00 61.00 0 1 0 508.00 155.00 A 61.00 61.00 0 1 0 508.00 33.00 Z" />
     <path class="segment" d="M 508.00 11.00 A 83.00 83.00 0 1 1 507.08 176.99 Q 499.50 165.91 507.32 155.00 A 61.00 61.00 0 1 0 508.00 33.00 Q 515.70 22.00 508.00 11.00 Z" fill="#7F52FF" />
    <path class="segment" d="M 507.08 176.99 A 83.00 83.00 0 0 1 427.34 74.44 Q 439.84 69.55 448.72 79.63 A 61.00 61.00 0 0 0 507.32 155.00 Q 499.50 165.91 507.08 176.99 Z" fill="#E34F26" />
    <path class="segment" d="M 427.34 74.44 A 83.00 83.00 0 0 1 485.70 14.05 Q 496.07 22.58 491.61 35.24 A 61.00 61.00 0 0 0 448.72 79.63 Q 439.84 69.55 427.34 74.44 Z" fill="#F7DF1E" />
    <path class="segment" d="M 485.70 14.05 A 83.00 83.00 0 0 1 501.06 11.29 Q 509.66 21.61 502.90 33.21 A 61.00 61.00 0 0 0 491.61 35.24 Q 496.07 22.58 485.70 14.05 Z" fill="#00B8D9" />
    <path class="segment" d="M 501.06 11.29 A 83.00 83.00 0 0 1 507.05 11.01 Q 514.88 21.92 507.30 33.00 A 61.00 61.00 0 0 0 502.90 33.21 Q 509.66 21.61 501.06 11.29 Z" fill="#22C55E" />
    <path class="segment" d="M 507.05 11.01 A 83.00 83.00 0 0 1 508.00 11.00 Q 515.70 22.00 508.00 33.00 A 61.00 61.00 0 0 0 507.30 33.00 Q 514.88 21.92 507.05 11.01 Z" fill="#EC4899" />
   </g>
   <text class="center-value" x="508.0" y="92.0">50.2%</text>
  <text class="center-label" x="508.0" y="113.0">Kotlin</text>
</svg>