<?xml version="1.0" encoding="UTF-8"?>
 <svg xmlns="http://www.w3.org/2000/svg" width="615" height="188" viewBox="0 0 615 188" role="img" aria-labelledby="title desc">
   <title id="title">Language distribution donut chart</title>
   <desc id="desc">Language mix across current public repositories: Kotlin 64.4%, HTML 20.9%, JavaScript 11.4%, CSS 2.3%, Python 0.9%, PowerShell 0.1%.</desc>
   <style>
     .label { fill: #24292f; font: 600 14px -apple-system, BlinkMacSystemFont, "Segoe UI", sans-serif; }
     .percent { fill: #57606a; font: 600 13px -apple-system, BlinkMacSystemFont, "Segoe UI", sans-serif; }
     .center-value { fill: #24292f; font: 700 28px -apple-system, BlinkMacSystemFont, "Segoe UI", sans-serif; text-anchor: middle; }
     .center-label { fill: #24292f; font: 600 13px -apple-system, BlinkMacSystemFont, "Segoe UI", sans-serif; text-anchor: middle; }
     .bar-track { fill: #d0d7de; opacity: 0.34; }
     .donut-track { fill: #d0d7de; opacity: 0.20; }
     .segment { stroke: none; }
     @media (prefers-color-scheme: dark) {
       .label, .center-value, .center-label { fill: #f0f6fc; }
       .percent { fill: #8b949e; }
       .bar-track { fill: #30363d; }
       .donut-track { fill: #30363d; }
     }
   </style>

   <g>
     <circle cx="26.0" cy="30.5" r="5" fill="#7F52FF"/>
    <text class="label" x="44.0" y="34.5">Kotlin</text>
    <text class="percent" x="183.0" y="34.5" text-anchor="end">64.4%</text>
    <rect class="bar-track" x="44.0" y="43.5" width="139.0" height="3" rx="1.5"/>
    <rect x="44.0" y="43.5" width="89.46" height="3" rx="1.5" fill="#7F52FF"/>
    <circle cx="26.0" cy="62.5" r="5" fill="#E34F26"/>
    <text class="label" x="44.0" y="66.5">HTML</text>
    <text class="percent" x="183.0" y="66.5" text-anchor="end">20.9%</text>
    <rect class="bar-track" x="44.0" y="75.5" width="139.0" height="3" rx="1.5"/>
    <rect x="44.0" y="75.5" width="29.10" height="3" rx="1.5" fill="#E34F26"/>
    <circle cx="26.0" cy="94.5" r="5" fill="#F7DF1E"/>
    <text class="label" x="44.0" y="98.5">JavaScript</text>
    <text class="percent" x="183.0" y="98.5" text-anchor="end">11.4%</text>
    <rect class="bar-track" x="44.0" y="107.5" width="139.0" height="3" rx="1.5"/>
    <rect x="44.0" y="107.5" width="15.79" height="3" rx="1.5" fill="#F7DF1E"/>
    <circle cx="26.0" cy="126.5" r="5" fill="#00B8D9"/>
    <text class="label" x="44.0" y="130.5">CSS</text>
    <text class="percent" x="183.0" y="130.5" text-anchor="end">2.3%</text>
    <rect class="bar-track" x="44.0" y="139.5" width="139.0" height="3" rx="1.5"/>
    <rect x="44.0" y="139.5" width="4.00" height="3" rx="1.5" fill="#00B8D9"/>
    <circle cx="26.0" cy="158.5" r="5" fill="#22C55E"/>
    <text class="label" x="44.0" y="162.5">Python</text>
    <text class="percent" x="183.0" y="162.5" text-anchor="end">0.9%</text>
    <rect class="bar-track" x="44.0" y="171.5" width="139.0" height="3" rx="1.5"/>
    <rect x="44.0" y="171.5" width="4.00" height="3" rx="1.5" fill="#22C55E"/>
    <circle cx="209.0" cy="30.5" r="5" fill="#EC4899"/>
    <text class="label" x="227.0" y="34.5">PowerShell</text>
    <text class="percent" x="366.0" y="34.5" text-anchor="end">0.1%</text>
    <rect class="bar-track" x="227.0" y="43.5" width="139.0" height="3" rx="1.5"/>
    <rect x="227.0" y="43.5" width="4.00" height="3" rx="1.5" fill="#EC4899"/>
   </g>

   <g>
     <path class="donut-track" d="M 508.00 11.00 A 83.00 83.00 0 1 1 508.00 177.00 A 83.00 83.00 0 1 1 508.00 11.00 L 508.00 33.00 A 61.00 61.00 0 1 0 508.00 155.00 A 61.00 61.00 0 1 0 508.00 33.00 Z" />
     <path class="segment" d="M 508.00 11.00 A 83.00 83.00 0 1 1 443.65 146.42 Q 447.31 133.50 460.71 132.53 A 61.00 61.00 0 1 0 508.00 33.00 Q 515.70 22.00 508.00 11.00 Z" fill="#7F52FF" />
    <path class="segment" d="M 443.65 146.42 A 83.00 83.00 0 0 1 440.79 45.31 Q 454.21 45.52 458.60 58.21 A 61.00 61.00 0 0 0 460.71 132.53 Q 447.31 133.50 443.65 146.42 Z" fill="#E34F26" />
    <path class="segment" d="M 440.79 45.31 A 83.00 83.00 0 0 1 488.87 13.23 Q 498.90 22.16 493.94 34.64 A 61.00 61.00 0 0 0 458.60 58.21 Q 454.21 45.52 440.79 45.31 Z" fill="#F7DF1E" />
    <path class="segment" d="M 488.87 13.23 A 83.00 83.00 0 0 1 500.66 11.33 Q 509.30 21.60 502.60 33.24 A 61.00 61.00 0 0 0 493.94 34.64 Q 498.90 22.16 488.87 13.23 Z" fill="#00B8D9" />
    <path class="segment" d="M 500.66 11.33 A 83.00 83.00 0 0 1 505.39 11.04 Q 513.43 21.79 506.08 33.03 A 61.00 61.00 0 0 0 502.60 33.24 Q 509.30 21.60 500.66 11.33 Z" fill="#22C55E" />
    <path class="segment" d="M 505.39 11.04 A 83.00 83.00 0 0 1 508.00 11.00 Q 515.70 22.00 508.00 33.00 A 61.00 61.00 0 0 0 506.08 33.03 Q 513.43 21.79 505.39 11.04 Z" fill="#EC4899" />
   </g>
   <text class="center-value" x="508.0" y="92.0">64.4%</text>
  <text class="center-label" x="508.0" y="113.0">Kotlin</text>
</svg>