<?xml version="1.0" encoding="UTF-8"?>
 <svg xmlns="http://www.w3.org/2000/svg" width="615" height="188" viewBox="0 0 615 188" role="img" aria-labelledby="title desc">
   <title id="title">Language distribution donut chart</title>
   <desc id="desc">Language mix across current public repositories: Kotlin 62.8%, HTML 20.3%, JavaScript 11.2%, Python 3.2%, CSS 2.3%, PowerShell 0.1%, Batchfile 0.0%.</desc>
   <style>
     .label { fill: #24292f; font: 600 14px -apple-system, BlinkMacSystemFont, "Segoe UI", sans-serif; }
     .percent { fill: #57606a; font: 600 13px -apple-system, BlinkMacSystemFont, "Segoe UI", sans-serif; }
     .center-value { fill: #24292f; font: 700 28px -apple-system, BlinkMacSystemFont, "Segoe UI", sans-serif; text-anchor: middle; }
     .center-label { fill: #24292f; font: 600 13px -apple-system, BlinkMacSystemFont, "Segoe UI", sans-serif; text-anchor: middle; }
     .bar-track { fill: #d0d7de; opacity: 0.34; }
     .donut-track { fill: #d0d7de; opacity: 0.20; }
     .segment { stroke: none; }
     @media (prefers-color-scheme: dark) {
       .label, .center-value, .center-label { fill: #f0f6fc; }
       .percent { fill: #8b949e; }
       .bar-track { fill: #30363d; }
       .donut-track { fill: #30363d; }
     }
   </style>

   <g>
     <circle cx="26.0" cy="30.5" r="5" fill="#7F52FF"/>
    <text class="label" x="44.0" y="34.5">Kotlin</text>
    <text class="percent" x="183.0" y="34.5" text-anchor="end">62.8%</text>
    <rect class="bar-track" x="44.0" y="43.5" width="139.0" height="3" rx="1.5"/>
    <rect x="44.0" y="43.5" width="87.30" height="3" rx="1.5" fill="#7F52FF"/>
    <circle cx="26.0" cy="62.5" r="5" fill="#E34F26"/>
    <text class="label" x="44.0" y="66.5">HTML</text>
    <text class="percent" x="183.0" y="66.5" text-anchor="end">20.3%</text>
    <rect class="bar-track" x="44.0" y="75.5" width="139.0" height="3" rx="1.5"/>
    <rect x="44.0" y="75.5" width="28.25" height="3" rx="1.5" fill="#E34F26"/>
    <circle cx="26.0" cy="94.5" r="5" fill="#F7DF1E"/>
    <text class="label" x="44.0" y="98.5">JavaScript</text>
    <text class="percent" x="183.0" y="98.5" text-anchor="end">11.2%</text>
    <rect class="bar-track" x="44.0" y="107.5" width="139.0" height="3" rx="1.5"/>
    <rect x="44.0" y="107.5" width="15.62" height="3" rx="1.5" fill="#F7DF1E"/>
    <circle cx="26.0" cy="126.5" r="5" fill="#22C55E"/>
    <text class="label" x="44.0" y="130.5">Python</text>
    <text class="percent" x="183.0" y="130.5" text-anchor="end">3.2%</text>
    <rect class="bar-track" x="44.0" y="139.5" width="139.0" height="3" rx="1.5"/>
    <rect x="44.0" y="139.5" width="4.41" height="3" rx="1.5" fill="#22C55E"/>
    <circle cx="26.0" cy="158.5" r="5" fill="#00B8D9"/>
    <text class="label" x="44.0" y="162.5">CSS</text>
    <text class="percent" x="183.0" y="162.5" text-anchor="end">2.3%</text>
    <rect class="bar-track" x="44.0" y="171.5" width="139.0" height="3" rx="1.5"/>
    <rect x="44.0" y="171.5" width="4.00" height="3" rx="1.5" fill="#00B8D9"/>
    <circle cx="209.0" cy="30.5" r="5" fill="#EC4899"/>
    <text class="label" x="227.0" y="34.5">PowerShell</text>
    <text class="percent" x="366.0" y="34.5" text-anchor="end">0.1%</text>
    <rect class="bar-track" x="227.0" y="43.5" width="139.0" height="3" rx="1.5"/>
    <rect x="227.0" y="43.5" width="4.00" height="3" rx="1.5" fill="#EC4899"/>
    <circle cx="209.0" cy="62.5" r="5" fill="#DFDC3A"/>
    <text class="label" x="227.0" y="66.5">Batchfile</text>
    <text class="percent" x="366.0" y="66.5" text-anchor="end">0.0%</text>
    <rect class="bar-track" x="227.0" y="75.5" width="139.0" height="3" rx="1.5"/>
    <rect x="227.0" y="75.5" width="4.00" height="3" rx="1.5" fill="#DFDC3A"/>
   </g>

   <g>
     <path class="donut-track" d="M 508.00 11.00 A 83.00 83.00 0 1 1 508.00 177.00 A 83.00 83.00 0 1 1 508.00 11.00 L 508.00 33.00 A 61.00 61.00 0 1 0 508.00 155.00 A 61.00 61.00 0 1 0 508.00 33.00 Z" />
     <path class="segment" d="M 508.00 11.00 A 83.00 83.00 0 1 1 450.18 153.54 Q 452.32 140.29 465.50 137.76 A 61.00 61.00 0 1 0 508.00 33.00 Q 515.70 22.00 508.00 11.00 Z" fill="#7F52FF" />
    <path class="segment" d="M 450.18 153.54 A 83.00 83.00 0 0 1 433.84 56.72 Q 447.13 54.79 453.50 66.60 A 61.00 61.00 0 0 0 465.50 137.76 Q 452.32 140.29 450.18 153.54 Z" fill="#E34F26" />
    <path class="segment" d="M 433.84 56.72 A 83.00 83.00 0 0 1 475.28 17.72 Q 486.70 24.79 483.96 37.94 A 61.00 61.00 0 0 0 453.50 66.60 Q 447.13 54.79 433.84 56.72 Z" fill="#F7DF1E" />
    <path class="segment" d="M 475.28 17.72 A 83.00 83.00 0 0 1 490.90 12.78 Q 500.70 21.96 495.43 34.31 A 61.00 61.00 0 0 0 483.96 37.94 Q 486.70 24.79 475.28 17.72 Z" fill="#22C55E" />
    <path class="segment" d="M 490.90 12.78 A 83.00 83.00 0 0 1 502.79 11.16 Q 511.16 21.66 504.17 33.12 A 61.00 61.00 0 0 0 495.43 34.31 Q 500.70 21.96 490.90 12.78 Z" fill="#00B8D9" />
    <path class="segment" d="M 502.79 11.16 A 83.00 83.00 0 0 1 505.39 11.04 Q 513.43 21.79 506.08 33.03 A 61.00 61.00 0 0 0 504.17 33.12 Q 511.16 21.66 502.79 11.16 Z" fill="#EC4899" />
    <path class="segment" d="M 505.39 11.04 A 83.00 83.00 0 0 1 508.00 11.00 Q 515.70 22.00 508.00 33.00 A 61.00 61.00 0 0 0 506.08 33.03 Q 513.43 21.79 505.39 11.04 Z" fill="#DFDC3A" />
   </g>
   <text class="center-value" x="508.0" y="92.0">62.8%</text>
  <text class="center-label" x="508.0" y="113.0">Kotlin</text>
</svg>